# xmcd
#
# Track frame offsets:
#	150
#	18513
#	45129
#	60855
#	89273
#	96702
#	117497
#	135335
#	155987
#	173903
#	185158
#	198526
#	217845
#
# Disc length: 3107 seconds
#
# Revision: 1
# Processed by: cddbd v1.5.2PL0 Copyright (c) Steve Scherf et al.
# Submitted via: audiograbber 1.83.01
#
DISCID=b30c210d
DTITLE=Wollny, Kruse, Schaefer - [em] 3
DYEAR=2008
DGENRE=Jazz
TTITLE0=Sempre Igor
TTITLE1=Arsène Somnambule
TTITLE2=Wo leichte Kähne fliehen
TTITLE3=Monsters: Symmetriads
TTITLE4=Ephemere Phone
TTITLE5=Love of her life
TTITLE6=Nocturne
TTITLE7=Kiyoshi
TTITLE8=Lautloser Adel
TTITLE9=What Kurtag left
TTITLE10=Grieg's last bow
TTITLE11=Gravité
TTITLE12=Redux
EXTD=
EXTT0=
EXTT1=
EXTT2=
EXTT3=
EXTT4=
EXTT5=
EXTT6=
EXTT7=
EXTT8=
EXTT9=
EXTT10=
EXTT11=
EXTT12=
PLAYORDER=
